<svg version="1.2" xmlns="http://www.w3.org/2000/svg" viewBox="0 0 1200 800" width="1200" height="800">
	<title>rm222batch2-mind-03-ai</title>
	<defs>
		<linearGradient id="g1" x1="-139" y1="775.4" x2="34.4" y2="-205.9" gradientUnits="userSpaceOnUse">
			<stop offset="0" stop-color="#f5f5f5"/>
		</linearGradient>
		<linearGradient id="g2" x1="-21.6" y1="476.4" x2="1181.6" y2="476.4" gradientUnits="userSpaceOnUse">
			<stop offset=".1" stop-color="#f44b5d"/>
			<stop offset=".1" stop-color="#f44b5d"/>
			<stop offset="1" stop-color="#c1e8f9" stop-opacity="0"/>
		</linearGradient>
		<linearGradient id="g3" x1="-19.5" y1="501.4" x2="1184" y2="501.4" gradientUnits="userSpaceOnUse">
			<stop offset=".1" stop-color="#f2485a"/>
			<stop offset=".1" stop-color="#f2485a"/>
			<stop offset="1" stop-color="#c1e8f9" stop-opacity="0"/>
		</linearGradient>
		<linearGradient id="g4" x1="-17.2" y1="526.4" x2="1186.5" y2="526.4" gradientUnits="userSpaceOnUse">
			<stop offset=".1" stop-color="#f2485a"/>
			<stop offset=".1" stop-color="#f2485a"/>
			<stop offset="1" stop-color="#c1e8f9" stop-opacity="0"/>
		</linearGradient>
		<linearGradient id="g5" x1="-15" y1="550.3" x2="1189" y2="550.3" gradientUnits="userSpaceOnUse">
			<stop offset=".1" stop-color="#f2485a"/>
			<stop offset=".1" stop-color="#f2485a"/>
			<stop offset="1" stop-color="#c1e8f9" stop-opacity="0"/>
		</linearGradient>
		<linearGradient id="g6" x1="-12.8" y1="556.5" x2="1191.5" y2="556.5" gradientUnits="userSpaceOnUse">
			<stop offset=".1" stop-color="#f2485a"/>
			<stop offset=".1" stop-color="#f2485a"/>
			<stop offset="1" stop-color="#c1e8f9" stop-opacity="0"/>
		</linearGradient>
		<linearGradient id="g7" x1="-10.5" y1="562.5" x2="1193.9" y2="562.5" gradientUnits="userSpaceOnUse">
			<stop offset=".1" stop-color="#f2485a"/>
			<stop offset=".1" stop-color="#f2485a"/>
			<stop offset="1" stop-color="#c1e8f9" stop-opacity="0"/>
		</linearGradient>
		<linearGradient id="g8" x1="-8.3" y1="568.3" x2="1196.4" y2="568.3" gradientUnits="userSpaceOnUse">
			<stop offset=".1" stop-color="#f2485a"/>
			<stop offset=".1" stop-color="#f2485a" stop-opacity="1"/>
			<stop offset="1" stop-color="#c1e8f9" stop-opacity="0"/>
		</linearGradient>
		<linearGradient id="g9" x1="-6.1" y1="574.1" x2="1198.9" y2="574.1" gradientUnits="userSpaceOnUse">
			<stop offset=".1" stop-color="#f2485a"/>
			<stop offset=".1" stop-color="#f2485a"/>
			<stop offset="1" stop-color="#c1e8f9" stop-opacity="0"/>
		</linearGradient>
		<linearGradient id="g10" x1="-3.9" y1="579.9" x2="1201.4" y2="579.9" gradientUnits="userSpaceOnUse">
			<stop offset=".1" stop-color="#f2485a"/>
			<stop offset=".1" stop-color="#f2485a"/>
			<stop offset="1" stop-color="#c1e8f9" stop-opacity="0"/>
		</linearGradient>
		<linearGradient id="g11" x1="-1.6" y1="585.4" x2="1203.8" y2="585.4" gradientUnits="userSpaceOnUse">
			<stop offset=".1" stop-color="#f2485a"/>
			<stop offset=".1" stop-color="#f2485a"/>
			<stop offset="1" stop-color="#c1e8f9" stop-opacity="0"/>
		</linearGradient>
		<linearGradient id="g12" x1="-10.7" y1="952.5" x2="-10.7" y2="783.7" gradientUnits="userSpaceOnUse">
			<stop offset=".1" stop-color="#ef001a"/>
			<stop offset="1" stop-color="#c1e8f9" stop-opacity="0"/>
		</linearGradient>
		<linearGradient id="g13" x1="-8.7" y1="585.7" x2="793.1" y2="585.7" gradientUnits="userSpaceOnUse">
			<stop offset=".1" stop-color="#f04e60"/>
			<stop offset=".1" stop-color="#f04f60"/>
			<stop offset=".5" stop-color="#ffffff" stop-opacity=".5"/>
			<stop offset="1" stop-color="#ffffff" stop-opacity="0"/>
		</linearGradient>
		<linearGradient id="g14" x1="277.6" y1="131.8" x2="1274.4" y2="131.8" gradientUnits="userSpaceOnUse">
			<stop offset="0" stop-color="#c1e8f9" stop-opacity="0"/>
			<stop offset=".9" stop-color="#ef011b"/>
			<stop offset=".9" stop-color="#ef001a"/>
		</linearGradient>
		<linearGradient id="g15" x1="278.6" y1="124.6" x2="1274.8" y2="124.6" gradientUnits="userSpaceOnUse">
			<stop offset="0" stop-color="#c1e8f9" stop-opacity="0"/>
			<stop offset=".9" stop-color="#ef011b"/>
			<stop offset=".9" stop-color="#ef001a"/>
		</linearGradient>
		<linearGradient id="g16" x1="279.5" y1="117.4" x2="1275.1" y2="117.4" gradientUnits="userSpaceOnUse">
			<stop offset="0" stop-color="#c1e8f9" stop-opacity="0"/>
			<stop offset=".9" stop-color="#ef011b"/>
			<stop offset=".9" stop-color="#ef001a"/>
		</linearGradient>
		<linearGradient id="g17" x1="280.5" y1="110.1" x2="1275.3" y2="110.1" gradientUnits="userSpaceOnUse">
			<stop offset="0" stop-color="#c1e8f9" stop-opacity="0"/>
			<stop offset=".9" stop-color="#ef011b"/>
			<stop offset=".9" stop-color="#ef001a"/>
		</linearGradient>
		<linearGradient id="g18" x1="281.5" y1="102.9" x2="1275.6" y2="102.9" gradientUnits="userSpaceOnUse">
			<stop offset="0" stop-color="#c1e8f9" stop-opacity="0"/>
			<stop offset=".9" stop-color="#ef011b"/>
			<stop offset=".9" stop-color="#ef001a"/>
		</linearGradient>
		<linearGradient id="g19" x1="282.5" y1="95.6" x2="1275.9" y2="95.6" gradientUnits="userSpaceOnUse">
			<stop offset="0" stop-color="#c1e8f9" stop-opacity="0"/>
			<stop offset=".9" stop-color="#ef011b"/>
			<stop offset=".9" stop-color="#ef001a"/>
		</linearGradient>
		<linearGradient id="g20" x1="283.5" y1="88.4" x2="1276.2" y2="88.4" gradientUnits="userSpaceOnUse">
			<stop offset="0" stop-color="#c1e8f9" stop-opacity="0"/>
			<stop offset=".9" stop-color="#ef011b"/>
			<stop offset=".9" stop-color="#ef001a"/>
		</linearGradient>
		<linearGradient id="g21" x1="284.5" y1="81.2" x2="1276.6" y2="81.2" gradientUnits="userSpaceOnUse">
			<stop offset="0" stop-color="#c1e8f9" stop-opacity="0"/>
			<stop offset=".9" stop-color="#ef011b"/>
			<stop offset=".9" stop-color="#ef001a"/>
		</linearGradient>
		<linearGradient id="g22" x1="285.4" y1="73.9" x2="1276.8" y2="73.9" gradientUnits="userSpaceOnUse">
			<stop offset="0" stop-color="#c1e8f9" stop-opacity="0"/>
			<stop offset=".9" stop-color="#ef011b"/>
			<stop offset=".9" stop-color="#ef001a"/>
		</linearGradient>
		<linearGradient id="g23" x1="286.4" y1="66.7" x2="1277.2" y2="66.7" gradientUnits="userSpaceOnUse">
			<stop offset="0" stop-color="#c1e8f9" stop-opacity="0"/>
			<stop offset=".9" stop-color="#ef011b"/>
			<stop offset=".9" stop-color="#ef001a"/>
		</linearGradient>
		<linearGradient id="g24" x1="287.4" y1="59.5" x2="1277.5" y2="59.5" gradientUnits="userSpaceOnUse">
			<stop offset="0" stop-color="#c1e8f9" stop-opacity="0"/>
			<stop offset=".9" stop-color="#ef011b"/>
			<stop offset=".9" stop-color="#ef001a"/>
		</linearGradient>
		<linearGradient id="g25" x1="288.4" y1="52.2" x2="1277.8" y2="52.2" gradientUnits="userSpaceOnUse">
			<stop offset="0" stop-color="#c1e8f9" stop-opacity="0"/>
			<stop offset=".9" stop-color="#ef011b"/>
			<stop offset=".9" stop-color="#ef001a"/>
		</linearGradient>
		<linearGradient id="g26" x1="289.4" y1="45" x2="1278.1" y2="45" gradientUnits="userSpaceOnUse">
			<stop offset="0" stop-color="#c1e8f9" stop-opacity="0"/>
			<stop offset=".9" stop-color="#ef011b"/>
			<stop offset=".9" stop-color="#ef001a"/>
		</linearGradient>
		<linearGradient id="g27" x1="290.4" y1="37.8" x2="1278.4" y2="37.8" gradientUnits="userSpaceOnUse">
			<stop offset="0" stop-color="#c1e8f9" stop-opacity="0"/>
			<stop offset=".9" stop-color="#ef011b"/>
			<stop offset=".9" stop-color="#ef001a"/>
		</linearGradient>
		<linearGradient id="g28" x1="291.4" y1="30.5" x2="1278.7" y2="30.5" gradientUnits="userSpaceOnUse">
			<stop offset="0" stop-color="#c1e8f9" stop-opacity="0"/>
			<stop offset=".9" stop-color="#ef011b"/>
			<stop offset=".9" stop-color="#ef001a"/>
		</linearGradient>
		<linearGradient id="g29" x1="292.3" y1="22.9" x2="1279" y2="22.9" gradientUnits="userSpaceOnUse">
			<stop offset="0" stop-color="#c1e8f9" stop-opacity="0"/>
			<stop offset=".9" stop-color="#ef011b"/>
			<stop offset=".9" stop-color="#ef001a"/>
		</linearGradient>
		<linearGradient id="g30" x1="293.2" y1="15" x2="1279.3" y2="15" gradientUnits="userSpaceOnUse">
			<stop offset="0" stop-color="#c1e8f9" stop-opacity="0"/>
			<stop offset=".9" stop-color="#ef011b"/>
			<stop offset=".9" stop-color="#ef001a"/>
		</linearGradient>
		<linearGradient id="g31" x1="294.1" y1="6.9" x2="1279.6" y2="6.9" gradientUnits="userSpaceOnUse">
			<stop offset="0" stop-color="#c1e8f9" stop-opacity="0"/>
			<stop offset=".9" stop-color="#ef011b"/>
			<stop offset=".9" stop-color="#ef001a"/>
		</linearGradient>
		<linearGradient id="g32" x1="297.1" y1="-1.5" x2="1281.9" y2="-1.5" gradientUnits="userSpaceOnUse">
			<stop offset="0" stop-color="#c1e8f9" stop-opacity="0"/>
			<stop offset=".9" stop-color="#ef011b"/>
			<stop offset=".9" stop-color="#ef001a"/>
		</linearGradient>
		<linearGradient id="g33" x1="296" y1="-10.1" x2="1280.2" y2="-10.1" gradientUnits="userSpaceOnUse">
			<stop offset="0" stop-color="#c1e8f9" stop-opacity="0"/>
			<stop offset=".9" stop-color="#ef011b"/>
			<stop offset=".9" stop-color="#ef001a"/>
		</linearGradient>
		<linearGradient id="g34" x1="296.9" y1="-18.8" x2="1280.5" y2="-18.8" gradientUnits="userSpaceOnUse">
			<stop offset="0" stop-color="#c1e8f9" stop-opacity="0"/>
			<stop offset=".9" stop-color="#ef011b"/>
			<stop offset=".9" stop-color="#ef001a"/>
		</linearGradient>
		<linearGradient id="g35" x1="297.9" y1="-27.7" x2="1280.8" y2="-27.7" gradientUnits="userSpaceOnUse">
			<stop offset="0" stop-color="#c1e8f9" stop-opacity="0"/>
			<stop offset=".9" stop-color="#ef011b"/>
			<stop offset=".9" stop-color="#ef001a"/>
		</linearGradient>
	</defs>
	<style>
		.s0 { fill: url(#g1) } 
		.s1 { fill: url(#g2) } 
		.s2 { fill: url(#g3) } 
		.s3 { fill: url(#g4) } 
		.s4 { fill: url(#g5) } 
		.s5 { fill: url(#g6) } 
		.s6 { fill: url(#g7) } 
		.s7 { fill: url(#g8) } 
		.s8 { fill: url(#g9) } 
		.s9 { fill: url(#g10) } 
		.s10 { fill: url(#g11) } 
		.s11 { fill: url(#g12) } 
		.s12 { fill: url(#g13) } 
		.s13 { fill: url(#g14) } 
		.s14 { fill: url(#g15) } 
		.s15 { fill: url(#g16) } 
		.s16 { fill: url(#g17) } 
		.s17 { fill: url(#g18) } 
		.s18 { fill: url(#g19) } 
		.s19 { fill: url(#g20) } 
		.s20 { fill: url(#g21) } 
		.s21 { fill: url(#g22) } 
		.s22 { fill: url(#g23) } 
		.s23 { fill: url(#g24) } 
		.s24 { fill: url(#g25) } 
		.s25 { fill: url(#g26) } 
		.s26 { fill: url(#g27) } 
		.s27 { fill: url(#g28) } 
		.s28 { fill: url(#g29) } 
		.s29 { fill: url(#g30) } 
		.s30 { fill: url(#g31) } 
		.s31 { fill: url(#g32) } 
		.s32 { fill: url(#g33) } 
		.s33 { fill: url(#g34) } 
		.s34 { fill: url(#g35) } 
	</style>
	<g id="Background">
		<path id="&lt;Path&gt;" class="s0" d="m1200 800h-1200v-800h1200z"/>
	</g>
	<g id="Graphic Elements">
		<g id="&lt;Clip Group&gt;">
			<g id="&lt;Group&gt;">
				<g id="&lt;Group&gt;">
					<g id="&lt;Group&gt;" style="opacity: .7">
						<g id="&lt;Group&gt;">
							<path id="&lt;Path&gt;" class="s1" d="m1180.9 588.2c-0.2-0.2-22.5-22.8-66.9-47.2-40.9-22.6-109.7-51.3-204.5-60.1-104.3-9.6-184.3 22.2-261.7 53-58.3 23.2-118.6 47.2-187.8 52.2-116.7 8.3-212-16.1-281.6-33.9-25.6-6.6-47.8-12.3-66.1-15-64.3-9.7-133 8.3-133.7 8.5l-0.2-1c0.7-0.2 69.5-18.2 134-8.5 18.4 2.7 40.6 8.4 66.3 15 69.5 17.8 164.7 42.2 281.3 33.9 68.9-5 129.2-28.9 187.4-52.1 77.5-30.9 157.6-62.8 262.2-53.1 95 8.8 163.9 37.6 204.9 60.2 44.5 24.5 66.9 47.2 67.1 47.4z"/>
						</g>
						<g id="&lt;Group&gt;">
							<path id="&lt;Path&gt;" class="s2" d="m1183.4 609.2c-3.9-3.6-97.7-88.5-273.2-103.5-28.2-2.3-56.3-1.6-83.4 2-59 8-113.2 27.2-165.5 45.7-63.6 22.5-129.4 45.8-202.1 47.6-23.6 0.6-48-0.4-74.6-3.2-69.9-7.3-132.4-23.1-182.5-35.8-34.1-8.6-63.5-16-87.8-19.1-60.2-7.7-126.4 7.8-133.4 10.9l-0.4-0.9c7-3.1 73.5-18.7 133.9-11 24.4 3.1 53.9 10.5 87.9 19.1 50.2 12.7 112.5 28.5 182.4 35.8 26.6 2.8 50.9 3.8 74.5 3.2 72.5-1.8 135.3-24 201.7-47.6 52.4-18.5 106.6-37.7 165.7-45.7 27.2-3.7 55.4-4.3 83.6-2 175.9 15 269.9 100.1 273.8 103.7z"/>
						</g>
						<g id="&lt;Group&gt;">
							<path id="&lt;Path&gt;" class="s3" d="m1185.8 630.1c-0.9-0.9-101-86.7-275-99.7-28.1-2.1-56.2-1-83.3 3.3-51.3 8.1-100.8 23.7-148.7 38.8-67.8 21.4-137.9 43.6-212.2 43.6q-4.1 0-8.2-0.1c-22.7-0.5-46.8-3-73.5-7.6-54.8-9.4-105.5-22.6-150.2-34.1-45.9-12-85.5-22.2-118.4-25.7-61.5-6.5-124.3 9.5-133.1 13.4l-0.4-0.9c8.8-3.9 71.9-20 133.6-13.5 33 3.5 72.6 13.8 118.6 25.7 44.6 11.6 95.3 24.7 150.1 34.1 26.6 4.6 50.7 7.1 73.4 7.6 77.2 1.7 149.8-21.3 220-43.4 47.9-15.1 97.5-30.8 148.8-38.9 27.2-4.3 55.4-5.4 83.6-3.3 174.3 13 274.7 99.1 275.6 100z"/>
						</g>
						<g id="&lt;Group&gt;">
							<path id="&lt;Path&gt;" class="s4" d="m1188.3 651c-3.5-3.2-31.7-24.4-80.4-46.5-42.9-19.5-111.8-43.8-196.4-49.3-28.5-1.9-56.5-0.4-83.3 4.5-42.3 7.7-85.1 19.8-126.4 31.5-79 22.4-160.6 45.6-244.2 39.7-22.8-1.6-45.8-5.4-72.4-11.9-36.2-8.8-70.6-18.5-103.9-27.8-63-17.7-117.5-33-163-36.9-57.3-4.9-118.3 9.4-132.9 15.9l-0.4-0.9c15.2-6.7 75.1-21 133.4-16 45.6 3.9 100.1 19.2 163.2 36.9 33.2 9.3 67.6 19 103.8 27.9 26.6 6.5 49.6 10.2 72.3 11.8 83.3 5.9 164.9-17.3 243.8-39.6 41.4-11.8 84.2-23.9 126.5-31.6 26.9-4.9 55-6.4 83.6-4.5 84.7 5.5 153.7 29.9 196.7 49.4 48.9 22.1 77.2 43.4 80.7 46.7z"/>
						</g>
						<g id="&lt;Group&gt;">
							<path id="&lt;Path&gt;" class="s5" d="m1190.8 671.9c-5.3-4.8-36.4-25.6-85-46.2-43.4-18.4-112.3-41.3-193.6-45.8-28.9-1.6-56.9 0.4-83.3 5.8-31.5 6.5-63.1 14.7-96.6 23.4-90.3 23.5-183.7 47.7-275.4 36.8-22.7-2.7-46.1-8.1-71.5-16.3q-17.9-5.8-35.5-11.5c-84.6-27.7-164.6-53.8-229.6-58.1-56.3-3.7-114.2 10.2-132.7 18.5l-0.4-1c22.3-9.9 81.1-21.9 133.2-18.5 65.1 4.3 145.1 30.4 229.8 58.1q17.6 5.8 35.5 11.6c25.4 8.2 48.7 13.5 71.3 16.2 91.6 10.9 184.9-13.3 275.1-36.7 33.4-8.7 65.1-17 96.6-23.5 26.5-5.4 54.6-7.4 83.6-5.8 81.4 4.5 150.4 27.4 193.9 45.9 48.7 20.6 80 41.5 85.3 46.4z"/>
						</g>
						<g id="&lt;Group&gt;">
							<path id="&lt;Path&gt;" class="s6" d="m1193.3 692.9c-6.8-6.3-41-26.8-89.6-46-43.9-17.3-112.7-38.7-190.8-42.2-29.4-1.4-57.4 1-83.2 7-17.9 4.2-36 8.6-55.2 13.4-100.7 25-214.8 53.3-318.4 35.7-23.2-3.9-46.2-10.6-70.4-20.5-89.3-36.6-183-70.9-263.3-74.6-50.4-2.3-105.9 9.1-132.5 21l-0.4-1c26.7-11.9 82.4-23.3 132.9-21 80.5 3.7 174.3 38.1 263.7 74.6 24.1 9.9 47 16.6 70.1 20.5 103.5 17.6 217.5-10.7 318-35.7 19.2-4.7 37.4-9.2 55.2-13.4 25.9-6 54-8.4 83.5-7 78.3 3.5 147.2 24.9 191.2 42.3 48.7 19.2 83 39.8 89.8 46.1z"/>
						</g>
						<g id="&lt;Group&gt;">
							<path id="&lt;Path&gt;" class="s7" d="m1195.7 713.8c-6.9-6.4-41.6-26.3-94.1-45.6-44.4-16.3-113-36.2-188-38.8-30.1-1-58.1 1.8-83.2 8.3-76.3 19.8-182.2 47.3-282.8 47.3-31.7 0-62.8-2.7-92.3-9.2-23.6-5.3-46.9-13.6-69.3-24.9-100.9-50.8-188.9-77.5-261.6-79.5-52-1.4-103.9 10.8-132.3 23.5l-0.4-1c28.5-12.7 80.6-24.9 132.7-23.5 72.9 2 161 28.7 262 79.6 22.4 11.2 45.6 19.6 69.1 24.8 123.1 27.3 274.5-12.1 374.6-38.1 25.3-6.5 53.4-9.3 83.5-8.3 75.1 2.6 143.9 22.6 188.4 38.9 52.6 19.3 87.5 39.3 94.4 45.7z"/>
						</g>
						<g id="&lt;Group&gt;">
							<path id="&lt;Path&gt;" class="s8" d="m1198.2 734.7c-8-7.4-44.9-26.9-98.7-45.2-44.7-15.2-113.3-33.7-185.2-35.4-30.8-0.7-58.8 2.5-83.2 9.6-63.2 18.2-126.6 31.1-183.3 37.1-74.9 7.9-140 4.5-193.3-10.1-24.4-6.7-47.3-16.5-68.2-29.2-62.8-38.1-158.8-83.6-259.9-84.3-44.9-0.4-95.5 9.6-132.1 25.9l-0.4-1c36.7-16.3 87.5-26.3 132.5-25.9 101.4 0.7 197.5 46.3 260.4 84.4 20.8 12.7 43.7 22.5 67.9 29.1 53.3 14.7 118.2 18 193 10.1 56.6-6 119.9-18.8 183.1-37.1 24.5-7 52.6-10.3 83.5-9.6 72.1 1.7 140.7 20.2 185.6 35.5 54.4 18.5 90.7 37.7 99 45.4z"/>
						</g>
						<g id="&lt;Group&gt;">
							<path id="&lt;Path&gt;" class="s9" d="m1200.7 755.6c-20.8-19.1-161.2-75.3-285.7-76.7-31.6-0.4-59.6 3.3-83.1 10.8-55.8 17.8-120.9 30-183.3 34.4-74.8 5.3-142.2-1.1-194.9-18.5-25.2-8.2-47.8-19.5-67.2-33.5-79.8-57.7-169.8-89.3-253.8-89.3q-2.1 0-4.3 0.1c-45.3 0.5-92.1 10.6-131.8 28.4l-0.5-0.9c39.9-17.8 86.9-27.9 132.3-28.5 85.5-1.1 177.3 30.6 258.7 89.4 19.3 13.9 41.8 25.1 66.9 33.4 111.3 36.6 269.8 18.4 377.6-16 23.6-7.5 51.7-11.2 83.4-10.8 124.7 1.4 265.6 57.8 286.4 77z"/>
						</g>
						<g id="&lt;Group&gt;">
							<path id="&lt;Path&gt;" class="s10" d="m1203.2 776.5c-14.5-13.3-79-38.9-151.8-55.7-52.7-12.1-151.2-28.9-218.8-5.1-62.6 21.9-150.2 34.1-228.6 31.8-44.5-1.3-85.2-7-120.7-16.9-39.7-11.1-72.1-27.2-96.5-47.9-53.1-45.2-115.1-75.7-179.3-88-34.1-6.6-68.7-8-102.7-4.3-36 4-71.7 13.7-106 29.1l-0.4-0.9c34.4-15.4 70.2-25.2 106.3-29.2 34.1-3.7 68.8-2.3 103 4.3 64.3 12.4 126.5 42.9 179.7 88.2 24.3 20.7 56.6 36.7 96.1 47.7 35.5 9.9 76.1 15.6 120.6 16.9 78.2 2.3 165.7-9.9 228.2-31.8 67.9-23.8 166.5-7 219.3 5.2 73 16.8 137.7 42.5 152.2 55.9z"/>
						</g>
					</g>
					<path id="&lt;Path&gt;" class="s11" d="m1196.2 952.5h-1204.9v-200.1c242.4-108.1 416.9 132.4 659.5 121.1 156.3-7.2 408.7-90.1 545.4 36.1z"/>
					<path id="&lt;Path&gt;" class="s12" d="m-8.7 590.8c141.4-16.7 283.9 29.3 400.1 107.9 130 88.1 277.1 94.6 401.7-9-62 105.9-259.6 130.6-359.6 74.6-52.6-29.3-93.9-75.6-145.9-106.4-89.6-53-194-63.9-296.3-57.3z"/>
				</g>
				<g id="&lt;Group&gt;">
					<g id="&lt;Group&gt;">
						<g id="&lt;Group&gt;">
							<path id="&lt;Path&gt;" class="s13" d="m1274.2 510.8c-113.9-26.6-222.6-79.1-314.2-151.9-12.7-10.1-25.2-20.7-37.3-30.9-23.4-19.7-47.5-40.1-73.3-57.3-45.8-30.6-90-45.8-131.5-45.2-23.8 0.3-47.5 5.9-70.5 11.4-10.2 2.4-20.7 4.9-31.2 6.9-59.6 11.5-122.9 7.3-183-12.1-60.1-19.4-113.9-53-155.6-97.2l0.7-0.7c41.6 44.1 95.2 77.6 155.2 97 60 19.3 123.1 23.5 182.5 12 10.5-2 21-4.5 31.2-6.9 23-5.4 46.7-11.1 70.7-11.4 41.7-0.6 86.1 14.6 132.1 45.3 25.8 17.3 50 37.7 73.3 57.4 12.1 10.3 24.7 20.9 37.3 30.9 91.5 72.7 200 125.2 313.8 151.7z"/>
						</g>
						<g id="&lt;Group&gt;">
							<path id="&lt;Path&gt;" class="s14" d="m1274.5 495c-114.1-28.2-222.7-79.4-314.1-148.1-12.7-9.5-25.2-19.6-37.4-29.3-14.6-11.6-29.7-23.7-45-34.9-10.3-7.5-19.8-14-29.1-19.9-46-29.1-90.2-43.7-131.4-43.3-23.6 0.2-47.1 5.4-69.7 10.4-10.4 2.3-21.1 4.6-31.7 6.5-56.8 9.9-116.9 5.8-173.8-11.8-30.2-9.4-59.8-22.7-87.9-39.5-28.1-16.7-53.6-36.1-75.8-57.8l0.7-0.7c22.2 21.6 47.6 41 75.6 57.7 28 16.7 57.5 30 87.7 39.3 56.8 17.6 116.7 21.7 173.3 11.8 10.6-1.9 21.3-4.2 31.6-6.5 22.8-5 46.3-10.2 69.9-10.4 41.5-0.4 85.9 14.2 132 43.4 9.3 5.9 18.8 12.5 29.2 20 15.3 11.2 30.4 23.3 45 35 12.2 9.7 24.7 19.7 37.4 29.2 91.2 68.6 199.7 119.8 313.8 148z"/>
						</g>
						<g id="&lt;Group&gt;">
							<path id="&lt;Path&gt;" class="s15" d="m1274.8 479.3c-114.6-30-223.2-79.9-314-144.4-12.7-9-25.2-18.4-37.4-27.6-14.9-11.2-30.2-22.7-45.8-33.4-10.3-7.2-19.9-13.4-29.2-19-46.2-27.7-90.4-41.6-131.4-41.4-23.3 0.2-46.5 4.9-68.9 9.4-10.5 2.1-21.4 4.3-32.1 6-56.8 8.9-116.5 4.1-172.7-14-29.2-9.4-58.6-22.8-87.4-39.7-27.6-16.2-54-35.3-76.4-55.1l0.7-0.7c22.3 19.8 48.7 38.8 76.2 54.9 28.7 16.9 58 30.3 87.2 39.6 56.1 18.1 115.6 22.9 172.2 14 10.7-1.7 21.6-3.9 32.1-6 22.5-4.5 45.7-9.2 69.1-9.4 41.2-0.2 85.5 13.8 131.9 41.6 9.3 5.6 18.9 11.8 29.3 18.9 15.6 10.8 30.9 22.3 45.8 33.5 12.2 9.2 24.7 18.6 37.4 27.6 90.7 64.4 199.2 114.3 313.7 144.3z"/>
						</g>
						<g id="&lt;Group&gt;">
							<path id="&lt;Path&gt;" class="s16" d="m1275.1 463.6c-115.4-31.9-224-80.6-313.9-140.7-12.6-8.4-25.2-17.3-37.3-25.9-15.2-10.7-30.8-21.7-46.6-32-10.5-6.8-20.1-12.7-29.5-18-46.4-26.2-90.5-39.4-131.3-39.4-22.9 0-45.8 4.2-67.9 8.3-10.7 2-21.8 4-32.8 5.5-56.7 8-116.1 2.4-171.6-16.2-28-9.3-57.2-22.8-86.8-39.9-27.3-15.9-53.9-34-76.9-52.4l0.7-0.8c22.9 18.4 49.4 36.5 76.7 52.3 29.5 17.1 58.7 30.5 86.6 39.9 55.4 18.5 114.6 24.1 171.2 16.2 10.9-1.6 22-3.6 32.7-5.6 22.2-4.1 45.1-8.3 68.1-8.3q0.1 0 0.3 0c40.8 0 85.1 13.3 131.5 39.6 9.4 5.3 19.1 11.2 29.5 18 15.9 10.2 31.5 21.3 46.6 32 12.2 8.6 24.8 17.4 37.4 25.9 89.8 60 198.2 108.6 313.5 140.6z"/>
						</g>
						<g id="&lt;Group&gt;">
							<path id="&lt;Path&gt;" class="s17" d="m1275.4 447.9c-118.6-34.6-224.1-80.7-313.8-137-12.5-7.9-25.1-16.2-37.2-24.2-15.4-10.2-31.4-20.8-47.4-30.6-10.6-6.4-20.3-11.9-29.7-16.9-46.6-24.8-90.8-37.5-131.3-37.6q-0.3 0-0.6 0c-22.4 0-44.7 3.7-66.3 7.3-10.9 1.8-22.2 3.7-33.4 5.1-56.7 6.9-115.7 0.5-170.5-18.4-27.1-9.4-55.4-22.6-86.3-40.3-26.6-15.2-53.4-32.3-77.4-49.6l0.6-0.8c24 17.2 50.7 34.4 77.3 49.5 30.9 17.7 59.1 30.9 86.1 40.2 54.7 18.9 113.5 25.3 170.1 18.4 11.1-1.4 22.4-3.2 33.4-5.1 21.8-3.6 44.3-7.4 67-7.3 40.7 0.1 85 12.8 131.8 37.7 9.4 5 19.1 10.6 29.7 17 16.1 9.8 32 20.4 47.5 30.6 12.1 8 24.6 16.3 37.1 24.2 89.6 56.2 195.1 102.3 313.5 136.9z"/>
						</g>
						<g id="&lt;Group&gt;">
							<path id="&lt;Path&gt;" class="s18" d="m1275.7 432.2c-121-37.1-226.5-82-313.7-133.3-12.4-7.3-24.9-15-36.9-22.5-15.8-9.7-32.1-19.8-48.5-29.1-10.6-6.1-20.3-11.3-29.8-16-46.8-23.4-91-35.3-131.2-35.6-22.3-0.2-44.4 3.1-65.8 6.3-11.2 1.6-22.8 3.3-34.2 4.5-56.8 5.9-115.4-1.2-169.5-20.6-25.9-9.3-53.1-22.2-85.7-40.5-24.7-13.9-50.9-29.7-77.9-46.9l0.5-0.9c27 17.2 53.2 33 77.9 46.9 32.5 18.3 59.7 31.2 85.6 40.4 53.9 19.4 112.4 26.5 169 20.6 11.4-1.2 22.9-2.9 34.1-4.5 21.5-3.2 43.7-6.5 66-6.3 40.4 0.3 84.7 12.3 131.6 35.7 9.5 4.7 19.3 10 29.9 16 16.4 9.4 32.7 19.4 48.5 29.2 12.1 7.4 24.5 15.1 36.9 22.5 87.2 51.2 192.6 96 313.4 133.2z"/>
						</g>
						<g id="&lt;Group&gt;">
							<path id="&lt;Path&gt;" class="s19" d="m1275.9 416.5c-128.4-41.5-228-82.7-313.5-129.6-12.3-6.8-24.6-13.8-36.5-20.7-16.1-9.3-32.8-18.9-49.6-27.8-10.7-5.6-20.5-10.5-30-15-47.7-22.2-90.6-33.2-131.2-33.7-21.8-0.3-43.5 2.6-64.6 5.3-11.5 1.5-23.3 3.1-35.1 4.1-56.7 4.9-114.9-3.1-168.3-22.9-31-11.5-60.5-27.1-85.2-40.8-15.8-8.7-31.4-17.6-46.5-26.1-11.3-6.4-21.9-12.4-31.9-18l0.5-0.9c10 5.6 20.6 11.6 31.9 18 15.1 8.6 30.7 17.4 46.5 26.2 24.7 13.6 54.1 29.2 85 40.7 53.3 19.8 111.4 27.6 168 22.8 11.6-1 23.5-2.6 35-4.1 21.1-2.7 42.8-5.6 64.7-5.3 40.7 0.5 83.8 11.5 131.6 33.8 9.5 4.5 19.4 9.4 30.1 15 16.7 8.9 33.5 18.6 49.6 27.9 11.9 6.8 24.2 13.9 36.5 20.6 85.4 46.9 185 88.1 313.3 129.5z"/>
						</g>
						<g id="&lt;Group&gt;">
							<path id="&lt;Path&gt;" class="s20" d="m1276.2 400.8c-98.4-33.4-212.6-74.4-313.3-125.9-12.1-6.2-24.2-12.6-35.9-18.8-16.6-8.9-33.8-18.1-51.1-26.5-10.7-5.3-20.6-9.9-30.2-14.1-47.8-20.7-90.7-31.1-131.1-31.8-21.3-0.3-42.6 2.1-63.2 4.4-11.8 1.3-24 2.7-36.1 3.5-56.7 3.9-114.6-4.8-167.3-25.1-29.3-11.2-57.9-26.4-84.6-41-29.5-16.1-55.8-30.3-78.9-41.4l0.4-0.9c23.2 11.1 49.5 25.3 79 41.4 26.7 14.6 55.2 29.7 84.5 41 52.5 20.2 110.2 28.9 166.8 25 12.1-0.8 24.3-2.2 36.1-3.5 20.6-2.3 42-4.7 63.3-4.4 40.5 0.7 83.5 11.1 131.5 31.9 9.6 4.2 19.5 8.8 30.3 14.1 17.2 8.4 34.4 17.6 51.1 26.5 11.7 6.2 23.7 12.7 35.8 18.8 100.7 51.5 214.9 92.5 313.3 125.8z"/>
						</g>
						<g id="&lt;Group&gt;">
							<path id="&lt;Path&gt;" class="s21" d="m1276.5 385.1l-17.8-6.3c-99.5-35.3-202.4-71.8-295.4-115.9-11.8-5.6-23.6-11.4-35-17-17.2-8.4-34.9-17.1-52.7-25.2-10.8-4.9-20.7-9.2-30.4-13-48.1-19.3-90.9-29.1-131-29.9-20.8-0.5-41.6 1.5-61.7 3.4-12.2 1.1-24.9 2.3-37.3 3-56.8 2.8-114.2-6.7-166.2-27.3-27.7-11-54.5-25.4-80.4-39.4l-3.7-2c-21.4-11.4-52.8-27.9-79.5-38.6l0.4-1c26.7 10.8 58.2 27.3 79.5 38.8l3.8 2c25.9 13.9 52.7 28.3 80.3 39.2 51.8 20.6 109.1 30.1 165.7 27.3 12.4-0.7 25.1-1.8 37.3-3 20.1-1.9 40.9-3.9 61.8-3.4 40.2 0.8 83.2 10.6 131.4 29.9 9.7 3.9 19.6 8.2 30.4 13.1 17.8 8 35.6 16.8 52.7 25.2 11.4 5.6 23.2 11.4 35 17 93 44 195.9 80.5 295.3 115.8l17.8 6.3z"/>
						</g>
						<g id="&lt;Group&gt;">
							<path id="&lt;Path&gt;" class="s22" d="m1276.8 369.4c-30.3-11.3-61.4-22.5-91.5-33.3-74.2-26.7-150.9-54.3-221.6-85.2-11.3-4.9-22.7-10.1-33.7-15-17.9-8.1-36.3-16.4-54.7-24.1-10.9-4.5-20.9-8.4-30.6-12-48.3-17.8-91.1-27-131-28-20.2-0.5-40.4 1-59.9 2.5-12.7 1-25.9 2-38.8 2.4-56.7 1.8-113.8-8.4-165.1-29.5-24-9.9-47.4-22.4-70.1-34.5q-6.7-3.5-13.4-7.1c-32.7-17.2-58.8-29-80-36l0.3-0.9c21.2 7 47.4 18.7 80.1 36q6.8 3.6 13.5 7.2c22.6 12 46 24.5 70 34.4 51.2 21 108.1 31.2 164.7 29.4 12.9-0.4 26-1.4 38.7-2.4 19.6-1.5 39.8-3 60-2.5 40 1 83 10.2 131.3 28.1 9.8 3.6 19.8 7.5 30.7 12 18.4 7.7 36.8 16 54.7 24.1 11 4.9 22.4 10.1 33.7 15 70.7 30.8 147.4 58.4 221.5 85.1 30.1 10.9 61.2 22.1 91.6 33.3z"/>
						</g>
						<g id="&lt;Group&gt;">
							<path id="&lt;Path&gt;" class="s23" d="m1277.1 353.7c-49-19.1-99.7-37-148.8-54.3-54.7-19.3-111.2-39.3-164.2-60.5-10.7-4.3-21.5-8.7-32-13-18.6-7.7-37.9-15.6-57.2-22.9-10.9-4.2-21-7.8-30.8-11.1-48.4-16.3-91.2-24.9-130.9-26.1-19.5-0.5-39 0.6-57.9 1.7-13.2 0.8-26.9 1.6-40.4 1.8-57.6 0.7-112.7-10-164-31.8-21.2-9-41.9-20-62-30.7-6.9-3.7-14-7.5-21-11.1-31.9-16.6-59-27.8-80.5-33.3l0.3-0.9c21.5 5.4 48.7 16.7 80.6 33.3 7.1 3.6 14.2 7.4 21.1 11.1 20.1 10.7 40.8 21.7 61.9 30.7 51.1 21.7 106.2 32.4 163.6 31.7 13.4-0.2 27.1-1 40.4-1.8 18.9-1.1 38.4-2.2 57.9-1.7 39.8 1.2 82.7 9.8 131.3 26.2 9.8 3.3 19.9 6.9 30.8 11 19.2 7.3 38.5 15.3 57.2 23 10.4 4.3 21.2 8.7 32 13 53 21.2 109.5 41.1 164.1 60.4 49.1 17.4 99.8 35.3 148.9 54.3z"/>
						</g>
						<g id="&lt;Group&gt;">
							<path id="&lt;Path&gt;" class="s24" d="m1277.4 338c-63.9-26-130.6-48.5-195.2-70.3-39-13.2-79.3-26.8-117.7-40.8-9.9-3.6-19.8-7.3-29.4-10.9-19.8-7.3-40.2-14.9-60.5-21.9-11-3.7-21.1-7-31-10.1-48.6-14.8-91.4-22.7-130.9-24.1-18.7-0.7-37.4 0.1-55.5 0.8-13.9 0.6-28.3 1.2-42.4 1.1-57.6-0.4-112.4-11.8-162.9-34-18.9-8.2-37.4-18.1-55.3-27.7-8.9-4.8-18.1-9.7-27.2-14.4-31.8-16.2-59-26.5-81-30.5l0.2-1c22 4 49.4 14.3 81.2 30.6 9.2 4.7 18.4 9.6 27.2 14.4 17.9 9.6 36.5 19.5 55.3 27.7 50.4 22.1 105 33.5 162.5 33.9 14.1 0.1 28.4-0.5 42.3-1.1 18.2-0.7 36.9-1.5 55.7-0.8 39.5 1.4 82.4 9.3 131.1 24.2 9.9 3 20 6.3 31 10.1 20.3 6.9 40.8 14.5 60.5 21.9 9.6 3.6 19.6 7.3 29.5 10.9 38.3 14 78.7 27.6 117.7 40.8 64.5 21.7 131.2 44.3 195.2 70.2z"/>
						</g>
						<g id="&lt;Group&gt;">
							<path id="&lt;Path&gt;" class="s25" d="m1277.7 322.2c-76-32.1-156.2-57.5-233.8-82-26-8.2-53-16.7-79-25.3q-12.9-4.2-25.8-8.5c-21.2-7.1-43.1-14.5-64.8-21.2-11.1-3.3-21.3-6.3-31.2-9-48.8-13.5-91.5-20.7-130.8-22.3-17.8-0.7-35.6-0.3-52.8 0.1-14.7 0.4-30 0.7-44.9 0.3-57.5-1.4-112-13.6-161.8-36.1-16.9-7.7-33.6-16.7-49.7-25.4-10.5-5.7-21.4-11.6-32.2-17-31.3-15.8-59.5-25.4-81.5-27.8l0.1-1c22.1 2.4 50.4 12.1 81.8 27.9 10.9 5.4 21.7 11.3 32.3 17 16.1 8.7 32.7 17.7 49.6 25.4 49.7 22.4 104 34.6 161.5 36 14.8 0.4 30.1 0.1 44.8-0.3 17.2-0.4 35-0.8 52.8-0.1 39.4 1.6 82.2 8.9 131 22.3 10 2.7 20.2 5.7 31.3 9.1 21.7 6.7 43.6 14 64.9 21.1q12.8 4.3 25.7 8.6c26 8.5 53 17 79 25.3 77.6 24.5 157.8 49.8 233.9 82z"/>
						</g>
						<g id="&lt;Group&gt;">
							<path id="&lt;Path&gt;" class="s26" d="m1277.9 306.5c-86-37.9-177.7-64.5-266.5-90.2-15.2-4.3-30.8-8.9-46.1-13.3q-10.1-3.1-20.2-6.1c-23.3-6.9-47.4-14.1-71.2-20.5-11-3-21.3-5.7-31.3-8.1-48.9-12-91.7-18.6-130.8-20.3-16.6-0.8-33.3-0.7-49.5-0.6-15.7 0.1-31.9 0.2-47.8-0.5-57.6-2.6-111.7-15.5-160.7-38.4-15.3-7.1-30.5-15.4-45.1-23.4-11.8-6.5-24-13.2-36.3-19.3-21.9-10.8-53.8-23.9-82-25v-1c28.4 1.1 60.5 14.3 82.4 25.1 12.3 6.1 24.6 12.8 36.4 19.3 14.6 8 29.7 16.3 45 23.4 48.9 22.8 102.9 35.7 160.4 38.3 15.8 0.7 32 0.6 47.7 0.5 16.2-0.1 32.9-0.2 49.6 0.6 39.1 1.7 82 8.4 130.9 20.3 10 2.5 20.3 5.1 31.4 8.1 23.8 6.5 47.9 13.6 71.2 20.6q10.1 3 20.2 6c15.2 4.5 30.9 9 46.1 13.4 88.8 25.7 180.6 52.2 266.7 90.2z"/>
						</g>
						<g id="&lt;Group&gt;">
							<path id="&lt;Path&gt;" class="s27" d="m1278.2 290.8c-94.3-43.3-196.3-69.8-294.9-95.3q-8.8-2.3-17.5-4.5l-11.2-3c-26.6-6.9-54-14.1-81-20.5-11.1-2.6-21.4-4.9-31.6-7.1-48.9-10.5-91.7-16.5-130.7-18.4-15.2-0.8-30.5-0.9-45.3-1.1-17-0.2-34.5-0.4-51.6-1.5-57.6-3.6-111.3-17.3-159.7-40.6-13.9-6.7-27.7-14.3-41-21.7-12.9-7.2-26.3-14.7-39.8-21.2-21.9-10.6-54-23.1-82.5-22.4v-1c28.7-0.8 60.9 11.8 82.9 22.5 13.6 6.5 26.9 14 39.9 21.2 13.3 7.4 27.1 15 40.9 21.7 48.3 23.2 101.9 36.9 159.3 40.5 17.1 1.1 34.6 1.3 51.6 1.5 14.8 0.2 30.1 0.3 45.4 1.1 39 1.9 81.8 7.9 130.8 18.4 10.2 2.2 20.5 4.5 31.6 7.1 27.1 6.4 54.5 13.6 81 20.6l11.2 2.9q8.7 2.3 17.5 4.5c98.7 25.6 200.7 52 295.2 95.4z"/>
						</g>
						<g id="&lt;Group&gt;">
							<path id="&lt;Path&gt;" class="s28" d="m1278.5 275.1c-101.2-48.4-213.3-73.8-312.3-96.1-33.1-7.6-62.9-14.3-92.9-20.4-11.2-2.2-21.5-4.2-31.8-6.1-49-9-91.7-14.4-130.6-16.5-13.5-0.7-27.1-1.1-40.2-1.4-18.6-0.6-37.8-1.1-56.5-2.6-57.6-4.8-110.9-19.2-158.5-42.9-12.8-6.3-25.4-13.4-37.6-20.3-13.8-7.8-28.1-15.9-42.7-22.9-22-10.4-54.2-22.3-83-19.6l-0.1-1c29-2.7 61.4 9.2 83.5 19.7 14.6 7 28.9 15.1 42.8 22.9 12.2 6.9 24.8 14.1 37.5 20.3 47.5 23.6 100.7 38 158.2 42.8 18.7 1.5 37.9 2 56.4 2.6 13.2 0.3 26.7 0.7 40.2 1.4 39 2.1 81.7 7.5 130.8 16.6 10.2 1.8 20.6 3.8 31.7 6.1 30.1 6 59.9 12.8 93 20.3 99 22.4 211.3 47.8 312.6 96.2z"/>
						</g>
						<g id="&lt;Group&gt;">
							<path id="&lt;Path&gt;" class="s29" d="m1278.8 259.4c-97.5-48.5-207.7-72.3-312.2-92.4-25.6-5-59.4-11.5-93.7-17.2-10.9-1.8-21.6-3.6-31.9-5.1-48.9-7.6-91.6-12.3-130.6-14.6-11.2-0.7-22.5-1.2-33.4-1.6-20.7-0.9-42.1-1.9-62.9-4-57.6-5.9-110.6-21.1-157.5-45-11.7-6-23.3-12.7-34.5-19.2-14.6-8.4-29.7-17.1-45.2-24.3-31.1-14.6-60.8-20.6-83.5-16.9l-0.2-1c16.2-2.6 44-1.8 84.1 17 15.5 7.3 30.6 16 45.3 24.4 11.2 6.4 22.8 13.1 34.5 19.1 46.7 23.9 99.6 39 157.1 44.9 20.8 2.1 42.2 3.1 62.9 4 10.9 0.4 22.2 0.9 33.4 1.6 39 2.3 81.7 7 130.6 14.6 10.3 1.5 21.1 3.3 32 5.1 34.2 5.7 68 12.2 93.7 17.2 104.6 20.2 214.9 44 312.5 92.5z"/>
						</g>
						<g id="&lt;Group&gt;">
							<path id="&lt;Path&gt;" class="s30" d="m1279.1 243.7c-100-51.7-213.5-72.9-312.1-88.7-33.9-5.5-64.7-10.1-94.4-14.1-10.8-1.4-21.6-2.8-32.2-4.1-48.4-6-91.1-10.2-130.5-12.7-8-0.5-16.1-1-23.9-1.4-23.8-1.4-48.3-2.8-72-5.6-57.7-7.1-110.3-23-156.4-47.3-10.8-5.7-21.6-12-31.9-18.1-15.3-8.9-31-18.2-47.3-25.6-31.3-14.4-61.1-19.4-84-14.3l-0.3-0.9c23.2-5.3 53.3-0.2 84.7 14.2 16.3 7.5 32.1 16.8 47.4 25.8 10.3 6 21.1 12.3 31.8 18 46.1 24.3 98.6 40.1 156.1 47.2 23.7 2.9 48.2 4.2 71.9 5.6 7.9 0.4 16 0.9 24 1.4 39.4 2.5 82.1 6.7 130.6 12.7 10.5 1.3 21.3 2.7 32.1 4.1 29.7 4 60.6 8.6 94.5 14.1 98.6 15.8 212.2 37.1 312.4 88.8z"/>
						</g>
						<g id="&lt;Group&gt;">
							<path id="&lt;Path&gt;" class="s31" d="m1281.4 228c-96.7-51.9-207.1-71.5-312-85-30.6-4-62.6-7.7-95.2-11-10.4-1-21.3-2.1-32.3-3.1-45.5-4.3-89.4-7.9-130.4-10.8q-5.2-0.3-10.3-0.6c-28.2-2-57.3-3.9-85.4-7.9-57.6-8.2-109.9-24.8-155.3-49.5-10-5.4-19.9-11.4-29.5-17.1-15.8-9.5-32.1-19.2-49.1-26.9-31.4-14.1-61.4-18.2-84.6-11.5l-0.2-0.9c23.3-6.8 53.6-2.7 85.2 11.5 17.1 7.7 33.4 17.5 49.2 26.9 9.6 5.8 19.5 11.7 29.5 17.1 45.3 24.6 97.5 41.2 155 49.4 28 4 55.8 5.9 85.3 7.9q5.1 0.3 10.2 0.6c41.1 2.9 85 6.5 130.5 10.8 11 1 21.9 2.1 32.3 3.2 32.6 3.2 64.7 6.9 95.2 10.9 105 13.5 215.6 33.1 312.4 85.1z"/>
						</g>
						<g id="&lt;Group&gt;">
							<path id="&lt;Path&gt;" class="s32" d="m1279.7 212.3c-97.8-54.5-212.5-71.7-311.9-81.3-28.9-2.9-59.3-5.3-95.9-7.8q-16.2-1.1-32.5-2.2l-21.9-1.4c-35.6-2.3-72.3-4.8-108.5-7.4-30.8-2.3-63.6-4.9-95.3-10.1-57.6-9.3-109.5-26.7-154.2-51.7-9.3-5.1-18.6-10.8-27.5-16.3-16.2-9.9-33-20.1-50.6-27.9-31.5-14-61.7-17.1-85.1-8.8l-0.3-1c23.6-8.3 54.1-5.2 85.8 8.9 17.7 7.8 34.5 18 50.7 28 9 5.5 18.2 11.1 27.5 16.3 44.6 24.9 96.3 42.2 153.9 51.6 31.7 5.1 64.4 7.7 95.2 10 36.2 2.6 72.9 5.1 108.4 7.4l22 1.4q16.3 1.1 32.5 2.2c36.5 2.5 67 4.9 95.9 7.8 65.7 6.3 115.3 14 161 24.8 57.9 13.6 107.4 32.2 151.3 56.6z"/>
						</g>
						<g id="&lt;Group&gt;">
							<path id="&lt;Path&gt;" class="s33" d="m1280 196.6c-98.2-56.7-212.7-71.1-311.8-77.6-34.4-2.3-68.2-3.7-96.6-4.7l-6.1-0.2q-13.3-0.5-26.6-1c-41.5-1.5-86.1-3.4-130.4-6.9-38.4-3-67.7-6.6-94.9-11.5-58.5-10.7-108.6-28.3-153.2-53.9-8.6-5-17.2-10.4-25.6-15.6-16.6-10.4-33.7-21.1-51.9-29-42.7-18.5-71.9-11.7-85.6-6.1l-0.4-0.9c13.8-5.7 43.4-12.5 86.4 6.1 18.3 7.9 35.4 18.7 52.1 29.1 8.3 5.2 16.9 10.5 25.5 15.5 44.5 25.6 94.5 43.2 152.9 53.8 27.2 5 56.4 8.5 94.8 11.5 44.3 3.5 88.8 5.4 130.3 6.9q13.4 0.5 26.6 1l6.1 0.2c28.5 1 62.2 2.4 96.7 4.7 99.2 6.5 213.9 20.9 312.2 77.7z"/>
						</g>
						<g id="&lt;Group&gt;">
							<path id="&lt;Path&gt;" class="s34" d="m1280.2 180.8c-54.1-32.4-118.5-53.5-196.9-64.5-68.1-9.6-139.2-10.6-212.1-10.9-76.1-0.2-144.6-1.2-212.2-10.5-78.5-10.8-143.2-31.6-197.6-63.8-8.1-4.8-16.2-9.9-23.9-14.9-16.9-10.8-34.4-22-53.1-29.9-42.9-18.2-72.3-9.9-86.1-3.4l-0.4-0.9c13.9-6.6 43.7-15 86.9 3.4 18.8 7.9 36.3 19.1 53.2 29.9 7.8 5 15.8 10.2 23.9 14.9 54.3 32.1 118.8 53 197.3 63.7 67.4 9.3 135.9 10.3 212 10.5 73 0.3 144.1 1.3 212.2 10.9 78.5 11 143.1 32.2 197.4 64.7z"/>
						</g>
					</g>
				</g>
			</g>
		</g>
	</g>
</svg>